<svg width="668" height="1061" viewBox="0 0 668 1061" fill="none" xmlns="http://www.w3.org/2000/svg">
<g filter="url(#filter0_d)">
<rect x="124" y="60" width="360" height="783" rx="60" fill="white"/>
</g>
<circle cx="304" cy="300" r="120" fill="url(#paint0_linear)"/>
<circle cx="304" cy="300" r="90" fill="white"/>
<path d="M305.621 299.273H288.078V295.792L296.358 286.968C297.494 285.726 298.332 284.642 298.871 283.716C299.422 282.79 299.698 281.911 299.698 281.079C299.698 279.943 299.41 279.052 298.836 278.407C298.262 277.751 297.442 277.423 296.375 277.423C295.227 277.423 294.319 277.822 293.651 278.618C292.994 279.404 292.666 280.441 292.666 281.73H287.569C287.569 280.171 287.938 278.747 288.676 277.458C289.426 276.169 290.481 275.161 291.84 274.435C293.199 273.697 294.74 273.327 296.463 273.327C299.1 273.327 301.145 273.96 302.598 275.226C304.063 276.491 304.795 278.279 304.795 280.587C304.795 281.853 304.467 283.142 303.811 284.454C303.155 285.767 302.03 287.296 300.436 289.042L294.617 295.177H305.621V299.273ZM327.957 288.691C327.957 292.23 327.224 294.937 325.76 296.812C324.295 298.687 322.15 299.624 319.326 299.624C316.537 299.624 314.404 298.704 312.927 296.865C311.451 295.025 310.695 292.388 310.66 288.954V284.243C310.66 280.669 311.398 277.956 312.875 276.105C314.363 274.253 316.502 273.327 319.291 273.327C322.08 273.327 324.213 274.247 325.689 276.087C327.166 277.915 327.922 280.546 327.957 283.98V288.691ZM322.877 283.523C322.877 281.402 322.584 279.861 321.998 278.9C321.424 277.927 320.521 277.441 319.291 277.441C318.095 277.441 317.211 277.904 316.636 278.829C316.074 279.743 315.775 281.179 315.74 283.136V289.359C315.74 291.445 316.021 292.997 316.584 294.017C317.158 295.025 318.072 295.529 319.326 295.529C320.568 295.529 321.465 295.042 322.015 294.07C322.566 293.097 322.853 291.609 322.877 289.605V283.523Z" fill="black"/>
<path d="M250.442 319.688H248.956V323H247.092V313.951H250.454C251.523 313.951 252.348 314.189 252.928 314.666C253.508 315.142 253.798 315.816 253.798 316.686C253.798 317.303 253.663 317.819 253.394 318.233C253.129 318.643 252.725 318.971 252.182 319.215L254.14 322.913V323H252.138L250.442 319.688ZM248.956 318.177H250.46C250.929 318.177 251.291 318.059 251.548 317.823C251.805 317.583 251.933 317.253 251.933 316.835C251.933 316.408 251.811 316.073 251.567 315.828C251.326 315.584 250.956 315.461 250.454 315.461H248.956V318.177ZM258.898 323.124C257.912 323.124 257.108 322.822 256.487 322.217C255.869 321.612 255.561 320.806 255.561 319.799V319.625C255.561 318.95 255.691 318.347 255.952 317.817C256.213 317.282 256.582 316.872 257.058 316.586C257.539 316.296 258.086 316.151 258.699 316.151C259.619 316.151 260.342 316.441 260.868 317.021C261.398 317.601 261.664 318.424 261.664 319.489V320.222H257.382C257.44 320.661 257.614 321.013 257.904 321.278C258.198 321.544 258.569 321.676 259.016 321.676C259.708 321.676 260.249 321.426 260.638 320.924L261.521 321.912C261.251 322.294 260.887 322.592 260.427 322.807C259.967 323.019 259.457 323.124 258.898 323.124ZM258.693 317.606C258.337 317.606 258.047 317.726 257.823 317.966C257.603 318.206 257.462 318.55 257.4 318.998H259.899V318.855C259.89 318.457 259.783 318.15 259.575 317.935C259.368 317.715 259.074 317.606 258.693 317.606ZM265.073 316.276L265.129 317.028C265.606 316.443 266.25 316.151 267.062 316.151C267.928 316.151 268.522 316.493 268.846 317.177C269.318 316.493 269.991 316.151 270.865 316.151C271.595 316.151 272.137 316.365 272.494 316.791C272.85 317.214 273.028 317.852 273.028 318.706V323H271.226V318.712C271.226 318.331 271.151 318.053 271.002 317.879C270.853 317.701 270.59 317.612 270.213 317.612C269.674 317.612 269.301 317.869 269.094 318.382L269.1 323H267.304V318.718C267.304 318.329 267.228 318.047 267.074 317.873C266.921 317.699 266.66 317.612 266.291 317.612C265.782 317.612 265.413 317.823 265.185 318.246V323H263.389V316.276H265.073ZM279.011 323C278.928 322.838 278.868 322.637 278.831 322.397C278.396 322.882 277.83 323.124 277.134 323.124C276.475 323.124 275.928 322.934 275.493 322.553C275.062 322.171 274.847 321.691 274.847 321.111C274.847 320.398 275.11 319.851 275.636 319.47C276.167 319.089 276.931 318.896 277.929 318.892H278.756V318.507C278.756 318.196 278.675 317.947 278.514 317.761C278.356 317.574 278.106 317.481 277.762 317.481C277.459 317.481 277.221 317.554 277.047 317.699C276.877 317.844 276.792 318.043 276.792 318.295H274.996C274.996 317.906 275.116 317.545 275.357 317.214C275.597 316.883 275.937 316.624 276.376 316.437C276.815 316.247 277.308 316.151 277.855 316.151C278.684 316.151 279.34 316.36 279.825 316.779C280.314 317.193 280.558 317.777 280.558 318.532V321.446C280.562 322.084 280.652 322.567 280.826 322.894V323H279.011ZM277.525 321.751C277.791 321.751 278.035 321.693 278.259 321.577C278.483 321.457 278.648 321.297 278.756 321.098V319.942H278.085C277.186 319.942 276.707 320.253 276.649 320.875L276.643 320.98C276.643 321.204 276.722 321.388 276.879 321.533C277.037 321.678 277.252 321.751 277.525 321.751ZM284.534 323H282.731V316.276H284.534V323ZM282.626 314.535C282.626 314.266 282.715 314.044 282.893 313.87C283.075 313.696 283.322 313.609 283.632 313.609C283.939 313.609 284.183 313.696 284.366 313.87C284.548 314.044 284.639 314.266 284.639 314.535C284.639 314.809 284.546 315.033 284.36 315.207C284.177 315.381 283.935 315.468 283.632 315.468C283.33 315.468 283.086 315.381 282.899 315.207C282.717 315.033 282.626 314.809 282.626 314.535ZM288.372 316.276L288.428 317.052C288.909 316.452 289.553 316.151 290.361 316.151C291.073 316.151 291.604 316.36 291.952 316.779C292.3 317.197 292.478 317.823 292.486 318.656V323H290.69V318.699C290.69 318.318 290.607 318.043 290.442 317.873C290.276 317.699 290 317.612 289.615 317.612C289.11 317.612 288.73 317.827 288.478 318.258V323H286.682V316.276H288.372ZM296.449 323H294.647V316.276H296.449V323ZM294.541 314.535C294.541 314.266 294.63 314.044 294.808 313.87C294.991 313.696 295.237 313.609 295.548 313.609C295.855 313.609 296.099 313.696 296.281 313.87C296.464 314.044 296.555 314.266 296.555 314.535C296.555 314.809 296.462 315.033 296.275 315.207C296.093 315.381 295.85 315.468 295.548 315.468C295.246 315.468 295.001 315.381 294.815 315.207C294.632 315.033 294.541 314.809 294.541 314.535ZM300.288 316.276L300.344 317.052C300.824 316.452 301.468 316.151 302.276 316.151C302.989 316.151 303.519 316.36 303.867 316.779C304.215 317.197 304.394 317.823 304.402 318.656V323H302.606V318.699C302.606 318.318 302.523 318.043 302.357 317.873C302.191 317.699 301.916 317.612 301.531 317.612C301.025 317.612 300.646 317.827 300.393 318.258V323H298.597V316.276H300.288ZM306.208 319.588C306.208 318.556 306.453 317.726 306.941 317.096C307.435 316.466 308.097 316.151 308.93 316.151C309.668 316.151 310.242 316.404 310.652 316.909L310.726 316.276H312.355V322.776C312.355 323.365 312.22 323.876 311.951 324.311C311.685 324.746 311.311 325.078 310.826 325.306C310.341 325.534 309.773 325.648 309.123 325.648C308.63 325.648 308.149 325.548 307.681 325.349C307.213 325.154 306.859 324.902 306.618 324.591L307.414 323.497C307.861 323.999 308.404 324.249 309.042 324.249C309.519 324.249 309.889 324.121 310.155 323.864C310.42 323.611 310.552 323.251 310.552 322.782V322.422C310.138 322.89 309.593 323.124 308.918 323.124C308.11 323.124 307.455 322.809 306.954 322.18C306.457 321.546 306.208 320.707 306.208 319.663V319.588ZM308.004 319.719C308.004 320.328 308.126 320.806 308.371 321.154C308.615 321.498 308.951 321.67 309.378 321.67C309.925 321.67 310.316 321.465 310.552 321.055V318.227C310.312 317.817 309.925 317.612 309.39 317.612C308.959 317.612 308.619 317.788 308.371 318.14C308.126 318.492 308.004 319.018 308.004 319.719ZM325.532 319.986C325.461 320.959 325.101 321.726 324.45 322.285C323.804 322.845 322.951 323.124 321.89 323.124C320.73 323.124 319.816 322.735 319.149 321.956C318.486 321.173 318.155 320.1 318.155 318.737V318.184C318.155 317.313 318.308 316.547 318.615 315.884C318.921 315.221 319.358 314.714 319.926 314.361C320.498 314.005 321.161 313.827 321.915 313.827C322.959 313.827 323.8 314.107 324.438 314.666C325.076 315.225 325.445 316.01 325.544 317.021H323.68C323.634 316.437 323.471 316.015 323.189 315.754C322.911 315.488 322.486 315.356 321.915 315.356C321.293 315.356 320.827 315.58 320.516 316.027C320.21 316.47 320.052 317.16 320.044 318.097V318.78C320.044 319.758 320.191 320.473 320.485 320.924C320.784 321.376 321.252 321.602 321.89 321.602C322.466 321.602 322.895 321.471 323.176 321.21C323.462 320.945 323.626 320.537 323.667 319.986H325.532ZM331.235 323C331.152 322.838 331.092 322.637 331.055 322.397C330.619 322.882 330.054 323.124 329.358 323.124C328.699 323.124 328.152 322.934 327.717 322.553C327.286 322.171 327.071 321.691 327.071 321.111C327.071 320.398 327.334 319.851 327.86 319.47C328.39 319.089 329.155 318.896 330.153 318.892H330.98V318.507C330.98 318.196 330.899 317.947 330.738 317.761C330.58 317.574 330.329 317.481 329.986 317.481C329.683 317.481 329.445 317.554 329.271 317.699C329.101 317.844 329.016 318.043 329.016 318.295H327.22C327.22 317.906 327.34 317.545 327.58 317.214C327.821 316.883 328.16 316.624 328.6 316.437C329.039 316.247 329.532 316.151 330.079 316.151C330.907 316.151 331.564 316.36 332.049 316.779C332.538 317.193 332.782 317.777 332.782 318.532V321.446C332.786 322.084 332.875 322.567 333.049 322.894V323H331.235ZM329.749 321.751C330.015 321.751 330.259 321.693 330.483 321.577C330.706 321.457 330.872 321.297 330.98 321.098V319.942H330.309C329.41 319.942 328.931 320.253 328.873 320.875L328.867 320.98C328.867 321.204 328.946 321.388 329.103 321.533C329.26 321.678 329.476 321.751 329.749 321.751ZM336.757 323H334.955V313.454H336.757V323ZM338.663 319.576C338.663 318.909 338.792 318.314 339.049 317.792C339.305 317.27 339.674 316.866 340.155 316.58C340.639 316.294 341.201 316.151 341.839 316.151C342.746 316.151 343.486 316.429 344.058 316.984C344.634 317.539 344.955 318.293 345.021 319.246L345.033 319.706C345.033 320.738 344.745 321.566 344.17 322.192C343.594 322.814 342.821 323.124 341.851 323.124C340.882 323.124 340.107 322.814 339.527 322.192C338.951 321.571 338.663 320.725 338.663 319.656V319.576ZM340.459 319.706C340.459 320.344 340.579 320.833 340.82 321.173C341.06 321.508 341.404 321.676 341.851 321.676C342.286 321.676 342.626 321.511 342.871 321.179C343.115 320.843 343.237 320.309 343.237 319.576C343.237 318.95 343.115 318.465 342.871 318.121C342.626 317.777 342.282 317.606 341.839 317.606C341.4 317.606 341.06 317.777 340.82 318.121C340.579 318.461 340.459 318.989 340.459 319.706ZM350.618 317.96C350.374 317.927 350.158 317.91 349.972 317.91C349.292 317.91 348.847 318.14 348.636 318.6V323H346.84V316.276H348.536L348.586 317.077C348.946 316.46 349.446 316.151 350.084 316.151C350.283 316.151 350.469 316.178 350.643 316.232L350.618 317.96ZM354.084 323H352.282V316.276H354.084V323ZM352.176 314.535C352.176 314.266 352.265 314.044 352.443 313.87C352.625 313.696 352.872 313.609 353.183 313.609C353.489 313.609 353.734 313.696 353.916 313.87C354.098 314.044 354.19 314.266 354.19 314.535C354.19 314.809 354.096 315.033 353.91 315.207C353.728 315.381 353.485 315.468 353.183 315.468C352.88 315.468 352.636 315.381 352.449 315.207C352.267 315.033 352.176 314.809 352.176 314.535ZM359.364 323.124C358.378 323.124 357.574 322.822 356.953 322.217C356.336 321.612 356.027 320.806 356.027 319.799V319.625C356.027 318.95 356.157 318.347 356.418 317.817C356.679 317.282 357.048 316.872 357.525 316.586C358.005 316.296 358.552 316.151 359.165 316.151C360.085 316.151 360.808 316.441 361.334 317.021C361.865 317.601 362.13 318.424 362.13 319.489V320.222H357.848C357.906 320.661 358.08 321.013 358.37 321.278C358.664 321.544 359.035 321.676 359.482 321.676C360.174 321.676 360.715 321.426 361.104 320.924L361.987 321.912C361.718 322.294 361.353 322.592 360.893 322.807C360.433 323.019 359.924 323.124 359.364 323.124ZM359.159 317.606C358.803 317.606 358.513 317.726 358.289 317.966C358.07 318.206 357.929 318.55 357.866 318.998H360.365V318.855C360.357 318.457 360.249 318.15 360.042 317.935C359.835 317.715 359.54 317.606 359.159 317.606ZM367.497 321.142C367.497 320.922 367.387 320.75 367.168 320.626C366.952 320.497 366.604 320.384 366.124 320.284C364.524 319.949 363.725 319.269 363.725 318.246C363.725 317.649 363.971 317.152 364.464 316.754C364.962 316.352 365.61 316.151 366.41 316.151C367.263 316.151 367.945 316.352 368.454 316.754C368.968 317.156 369.225 317.678 369.225 318.32H367.429C367.429 318.063 367.346 317.852 367.18 317.686C367.015 317.516 366.756 317.432 366.403 317.432C366.101 317.432 365.867 317.5 365.701 317.637C365.535 317.773 365.453 317.947 365.453 318.159C365.453 318.358 365.546 318.519 365.732 318.643C365.923 318.764 366.242 318.869 366.689 318.96C367.137 319.047 367.514 319.147 367.82 319.259C368.769 319.607 369.244 320.21 369.244 321.067C369.244 321.68 368.98 322.178 368.454 322.559C367.928 322.936 367.249 323.124 366.416 323.124C365.852 323.124 365.351 323.025 364.912 322.826C364.477 322.623 364.135 322.347 363.886 321.999C363.638 321.647 363.514 321.268 363.514 320.862H365.216C365.233 321.181 365.351 321.426 365.571 321.595C365.79 321.765 366.084 321.85 366.453 321.85C366.797 321.85 367.056 321.786 367.23 321.658C367.408 321.525 367.497 321.353 367.497 321.142Z" fill="black"/>
<rect x="154" y="450" width="300" height="150" fill="url(#paint1_linear)"/>
<path d="M190.668 524.828L193.622 498.812H222.309V507.285H201.954L200.688 518.289C203.102 517 205.668 516.355 208.387 516.355C213.262 516.355 217.083 517.867 219.848 520.891C222.614 523.914 223.997 528.145 223.997 533.582C223.997 536.887 223.293 539.852 221.887 542.477C220.504 545.078 218.512 547.105 215.911 548.559C213.309 549.988 210.239 550.703 206.7 550.703C203.606 550.703 200.735 550.082 198.086 548.84C195.438 547.574 193.34 545.805 191.793 543.531C190.27 541.258 189.461 538.668 189.368 535.762H199.422C199.633 537.895 200.372 539.559 201.637 540.754C202.926 541.926 204.602 542.512 206.665 542.512C208.961 542.512 210.731 541.691 211.973 540.051C213.215 538.387 213.836 536.043 213.836 533.02C213.836 530.113 213.122 527.887 211.692 526.34C210.262 524.793 208.235 524.02 205.61 524.02C203.196 524.02 201.239 524.652 199.739 525.918L198.754 526.832L190.668 524.828ZM262.023 498.285V506.652H261.039C256.445 506.723 252.742 507.918 249.929 510.238C247.14 512.559 245.464 515.781 244.902 519.906C247.621 517.141 251.054 515.758 255.203 515.758C259.656 515.758 263.195 517.352 265.82 520.539C268.445 523.727 269.757 527.922 269.757 533.125C269.757 536.453 269.031 539.465 267.578 542.16C266.148 544.855 264.109 546.953 261.46 548.453C258.835 549.953 255.859 550.703 252.531 550.703C247.14 550.703 242.781 548.828 239.453 545.078C236.148 541.328 234.496 536.324 234.496 530.066V526.41C234.496 520.855 235.539 515.957 237.625 511.715C239.734 507.449 242.746 504.156 246.66 501.836C250.597 499.492 255.156 498.309 260.335 498.285H262.023ZM252.109 523.914C250.468 523.914 248.98 524.348 247.644 525.215C246.308 526.059 245.324 527.184 244.691 528.59V531.684C244.691 535.082 245.359 537.742 246.695 539.664C248.031 541.562 249.906 542.512 252.32 542.512C254.5 542.512 256.257 541.656 257.593 539.945C258.953 538.211 259.632 535.973 259.632 533.23C259.632 530.441 258.953 528.191 257.593 526.48C256.234 524.77 254.406 523.914 252.109 523.914Z" fill="black"/>
<path opacity="0.4" d="M342.422 537V511.406H351.387C354.493 511.406 356.848 512.004 358.454 513.199C360.059 514.383 360.862 516.123 360.862 518.42C360.862 519.674 360.54 520.781 359.895 521.742C359.25 522.691 358.354 523.389 357.206 523.834C358.518 524.162 359.549 524.824 360.299 525.82C361.061 526.816 361.442 528.035 361.442 529.477C361.442 531.938 360.657 533.801 359.086 535.066C357.516 536.332 355.278 536.977 352.372 537H342.422ZM347.696 525.855V532.764H352.213C353.456 532.764 354.422 532.471 355.114 531.885C355.817 531.287 356.168 530.467 356.168 529.424C356.168 527.08 354.956 525.891 352.53 525.855H347.696ZM347.696 522.129H351.598C354.258 522.082 355.588 521.021 355.588 518.947C355.588 517.787 355.249 516.955 354.569 516.451C353.901 515.936 352.84 515.678 351.387 515.678H347.696V522.129ZM372.668 527.982V537H367.395V511.406H377.379C379.301 511.406 380.988 511.758 382.441 512.461C383.906 513.164 385.031 514.166 385.816 515.467C386.602 516.756 386.994 518.227 386.994 519.879C386.994 522.387 386.133 524.367 384.41 525.82C382.699 527.262 380.326 527.982 377.291 527.982H372.668ZM372.668 523.711H377.379C378.773 523.711 379.834 523.383 380.561 522.727C381.299 522.07 381.668 521.133 381.668 519.914C381.668 518.66 381.299 517.646 380.561 516.873C379.822 516.1 378.803 515.701 377.502 515.678H372.668V523.711ZM399.503 511.406L406.078 529.969L412.617 511.406H419.542V537H414.251V530.004L414.779 517.928L407.871 537H404.25L397.359 517.945L397.886 530.004V537H392.613V511.406H399.503Z" fill="black"/>
<rect x="154" y="631.5" width="300" height="150" fill="url(#paint2_linear)"/>
<path d="M216.172 693.918C216.172 696.402 215.551 698.605 214.309 700.527C213.066 702.449 211.355 703.984 209.176 705.133C211.66 706.328 213.629 707.98 215.082 710.09C216.535 712.176 217.262 714.637 217.262 717.473C217.262 722.02 215.715 725.617 212.621 728.266C209.527 730.891 205.32 732.203 200 732.203C194.68 732.203 190.461 730.879 187.344 728.23C184.227 725.582 182.668 721.996 182.668 717.473C182.668 714.637 183.395 712.164 184.848 710.055C186.301 707.945 188.258 706.305 190.719 705.133C188.539 703.984 186.828 702.449 185.586 700.527C184.367 698.605 183.758 696.402 183.758 693.918C183.758 689.559 185.211 686.09 188.117 683.512C191.023 680.91 194.973 679.609 199.965 679.609C204.934 679.609 208.871 680.898 211.777 683.477C214.707 686.031 216.172 689.512 216.172 693.918ZM207.066 716.734C207.066 714.508 206.422 712.727 205.133 711.391C203.844 710.055 202.109 709.387 199.93 709.387C197.773 709.387 196.051 710.055 194.762 711.391C193.473 712.703 192.828 714.484 192.828 716.734C192.828 718.914 193.461 720.672 194.727 722.008C195.992 723.344 197.75 724.012 200 724.012C202.203 724.012 203.926 723.367 205.168 722.078C206.434 720.789 207.066 719.008 207.066 716.734ZM206.012 694.41C206.012 692.418 205.484 690.824 204.43 689.629C203.375 688.41 201.887 687.801 199.965 687.801C198.066 687.801 196.59 688.387 195.535 689.559C194.48 690.73 193.953 692.348 193.953 694.41C193.953 696.449 194.48 698.09 195.535 699.332C196.59 700.574 198.078 701.195 200 701.195C201.922 701.195 203.398 700.574 204.43 699.332C205.484 698.09 206.012 696.449 206.012 694.41Z" fill="black"/>
<path opacity="0.4" d="M272.622 701.555C273.97 699.938 275.663 699.129 277.702 699.129C281.827 699.129 283.919 701.525 283.978 706.318V718.5H278.897V706.459C278.897 705.369 278.663 704.566 278.194 704.051C277.726 703.523 276.946 703.26 275.856 703.26C274.368 703.26 273.29 703.834 272.622 704.982V718.5H267.542V691.5H272.622V701.555Z" fill="black"/>
<path d="M320.493 701.406H325.907C328.485 701.406 330.395 700.762 331.637 699.473C332.879 698.184 333.5 696.473 333.5 694.34C333.5 692.277 332.879 690.672 331.637 689.523C330.418 688.375 328.731 687.801 326.575 687.801C324.629 687.801 323 688.34 321.688 689.418C320.375 690.473 319.719 691.855 319.719 693.566H309.559C309.559 690.895 310.274 688.504 311.704 686.395C313.157 684.262 315.172 682.598 317.75 681.402C320.352 680.207 323.211 679.609 326.329 679.609C331.743 679.609 335.985 680.91 339.055 683.512C342.125 686.09 343.661 689.652 343.661 694.199C343.661 696.543 342.946 698.699 341.516 700.668C340.086 702.637 338.211 704.148 335.891 705.203C338.774 706.234 340.918 707.781 342.325 709.844C343.754 711.906 344.469 714.344 344.469 717.156C344.469 721.703 342.805 725.348 339.477 728.09C336.172 730.832 331.79 732.203 326.329 732.203C321.219 732.203 317.036 730.855 313.778 728.16C310.543 725.465 308.926 721.902 308.926 717.473H319.086C319.086 719.395 319.801 720.965 321.231 722.184C322.684 723.402 324.465 724.012 326.575 724.012C328.989 724.012 330.875 723.379 332.235 722.113C333.618 720.824 334.309 719.125 334.309 717.016C334.309 711.906 331.497 709.352 325.872 709.352H320.493V701.406ZM389.914 710.336C389.914 717.414 388.449 722.828 385.519 726.578C382.589 730.328 378.3 732.203 372.652 732.203C367.074 732.203 362.808 730.363 359.855 726.684C356.902 723.004 355.39 717.73 355.32 710.863V701.441C355.32 694.293 356.796 688.867 359.75 685.164C362.726 681.461 367.003 679.609 372.582 679.609C378.16 679.609 382.425 681.449 385.378 685.129C388.332 688.785 389.843 694.047 389.914 700.914V710.336ZM379.753 700C379.753 695.758 379.167 692.676 377.996 690.754C376.847 688.809 375.042 687.836 372.582 687.836C370.191 687.836 368.421 688.762 367.273 690.613C366.148 692.441 365.55 695.312 365.48 699.227V711.672C365.48 715.844 366.042 718.949 367.167 720.988C368.316 723.004 370.144 724.012 372.652 724.012C375.136 724.012 376.929 723.039 378.031 721.094C379.132 719.148 379.707 716.172 379.753 712.164V700Z" fill="black"/>
<path opacity="0.4" d="M416.909 699.48L417.067 701.607C418.415 699.955 420.237 699.129 422.534 699.129C424.983 699.129 426.665 700.096 427.579 702.029C428.915 700.096 430.819 699.129 433.292 699.129C435.354 699.129 436.89 699.732 437.897 700.939C438.905 702.135 439.409 703.939 439.409 706.354V718.5H434.312V706.371C434.312 705.293 434.101 704.508 433.679 704.016C433.257 703.512 432.513 703.26 431.446 703.26C429.923 703.26 428.868 703.986 428.282 705.439L428.3 718.5H423.22V706.389C423.22 705.287 423.003 704.49 422.569 703.998C422.136 703.506 421.397 703.26 420.354 703.26C418.913 703.26 417.87 703.857 417.226 705.053V718.5H412.146V699.48H416.909Z" fill="black"/>
<path d="M257 180H304V230H277L257 180Z" fill="white"/>
<defs>
<filter id="filter0_d" x="0" y="-30" width="668" height="1091" filterUnits="userSpaceOnUse" color-interpolation-filters="sRGB">
<feFlood flood-opacity="0" result="BackgroundImageFix"/>
<feColorMatrix in="SourceAlpha" type="matrix" values="0 0 0 0 0 0 0 0 0 0 0 0 0 0 0 0 0 0 127 0"/>
<feOffset dx="30" dy="64"/>
<feGaussianBlur stdDeviation="77"/>
<feColorMatrix type="matrix" values="0 0 0 0 0 0 0 0 0 0 0 0 0 0 0 0 0 0 0.25 0"/>
<feBlend mode="normal" in2="BackgroundImageFix" result="effect1_dropShadow"/>
<feBlend mode="normal" in="SourceGraphic" in2="effect1_dropShadow" result="shape"/>
</filter>
<linearGradient id="paint0_linear" x1="304" y1="180" x2="304" y2="420" gradientUnits="userSpaceOnUse">
<stop stop-color="#24FB01"/>
<stop offset="1" stop-color="#24FB01" stop-opacity="0"/>
</linearGradient>
<linearGradient id="paint1_linear" x1="304" y1="450" x2="304" y2="600" gradientUnits="userSpaceOnUse">
<stop stop-color="#FF8080"/>
<stop offset="1" stop-color="#FD0101" stop-opacity="0.19"/>
</linearGradient>
<linearGradient id="paint2_linear" x1="304" y1="631.5" x2="304" y2="781.5" gradientUnits="userSpaceOnUse">
<stop stop-color="#99A9FF"/>
<stop offset="1" stop-color="#99A9FF" stop-opacity="0.31"/>
</linearGradient>
</defs>
</svg>
